<?xml version="1.0" encoding="UTF-8" standalone="no"?>
<!-- Created with Inkscape (http://www.inkscape.org/) -->

<svg
   xmlns:dc="http://purl.org/dc/elements/1.1/"
   xmlns:cc="http://creativecommons.org/ns#"
   xmlns:rdf="http://www.w3.org/1999/02/22-rdf-syntax-ns#"
   xmlns:svg="http://www.w3.org/2000/svg"
   xmlns="http://www.w3.org/2000/svg"
   xmlns:sodipodi="http://sodipodi.sourceforge.net/DTD/sodipodi-0.dtd"
   xmlns:inkscape="http://www.inkscape.org/namespaces/inkscape"
   width="188.92416"
   height="216.71875"
   id="svg5721"
   version="1.1"
   inkscape:version="0.48.4 r9939"
   sodipodi:docname="brain.svg">
  <defs
     id="defs5723">
    <inkscape:path-effect
       effect="spiro"
       id="path-effect4902"
       is_visible="true" />
    <inkscape:path-effect
       effect="spiro"
       id="path-effect4899"
       is_visible="true" />
    <inkscape:path-effect
       is_visible="true"
       id="path-effect4896"
       effect="spiro" />
    <inkscape:path-effect
       effect="spiro"
       id="path-effect4893"
       is_visible="true" />
    <inkscape:path-effect
       effect="spiro"
       id="path-effect4890"
       is_visible="true" />
    <inkscape:path-effect
       is_visible="true"
       id="path-effect4887"
       effect="spiro" />
    <inkscape:path-effect
       is_visible="true"
       id="path-effect4884"
       effect="spiro" />
    <inkscape:path-effect
       effect="spiro"
       id="path-effect4881"
       is_visible="true" />
    <inkscape:path-effect
       is_visible="true"
       id="path-effect4878"
       effect="spiro" />
    <inkscape:path-effect
       is_visible="true"
       id="path-effect4875"
       effect="spiro" />
    <inkscape:path-effect
       effect="spiro"
       id="path-effect4872"
       is_visible="true" />
  </defs>
  <sodipodi:namedview
     id="base"
     pagecolor="#ffffff"
     bordercolor="#666666"
     borderopacity="1.0"
     inkscape:pageopacity="0.0"
     inkscape:pageshadow="2"
     inkscape:zoom="8"
     inkscape:cx="107.5625"
     inkscape:cy="80.785784"
     inkscape:document-units="px"
     inkscape:current-layer="layer1"
     showgrid="false"
     fit-margin-top="0"
     fit-margin-left="0"
     fit-margin-right="0"
     fit-margin-bottom="0"
     inkscape:window-width="1131"
     inkscape:window-height="720"
     inkscape:window-x="100"
     inkscape:window-y="100"
     inkscape:window-maximized="0" />
  <metadata
     id="metadata5726">
    <rdf:RDF>
      <cc:Work
         rdf:about="">
        <dc:format>image/svg+xml</dc:format>
        <dc:type
           rdf:resource="http://purl.org/dc/dcmitype/StillImage" />
        <dc:title />
      </cc:Work>
    </rdf:RDF>
  </metadata>
  <g
     inkscape:label="Layer 1"
     inkscape:groupmode="layer"
     id="layer1"
     transform="translate(-396.96649,-544.00281)">
    <path
       sodipodi:type="inkscape:offset"
       inkscape:radius="5.0052857"
       inkscape:original="M -306.1875 -559.15625 C -310.07075 -559.15625 -317.26001 -558.28403 -320.65625 -556.9375 C -334.3724 -551.3788 -339.13905 -535.33954 -348.1875 -527 C -354.76134 -520.94119 -366.39063 -509.8901 -366.78125 -481.09375 C -367.01517 -463.84916 -361.93514 -437.30424 -348.65625 -421.875 C -345.72276 -418.46647 -347.96187 -414.25853 -341.34375 -402.125 C -334.81411 -390.1537 -318.05132 -370.8426 -300.96875 -363.75 C -300.51817 -363.5389 -300.06651 -363.35013 -299.59375 -363.1875 C -298.17546 -362.69962 -296.65375 -362.4375 -295.09375 -362.4375 C -289.71558 -362.4375 -282.3125 -370.25 -282.3125 -370.25 C -282.3125 -370.25 -274.90942 -362.4375 -269.53125 -362.4375 C -267.97125 -362.4375 -266.44954 -362.69962 -265.03125 -363.1875 C -264.55849 -363.35013 -264.10683 -363.5389 -263.65625 -363.75 C -246.57368 -370.8426 -229.84214 -390.1537 -223.3125 -402.125 C -216.69438 -414.25853 -218.93349 -418.46647 -216 -421.875 C -202.72111 -437.30424 -197.64108 -463.84916 -197.875 -481.09375 C -198.26562 -509.8901 -209.86366 -520.94119 -216.4375 -527 C -225.48595 -535.33954 -230.28385 -551.3788 -244 -556.9375 C -247.39624 -558.28403 -254.55425 -559.15625 -258.4375 -559.15625 C -268.4783 -559.15625 -282.3125 -546 -282.3125 -546 C -282.3125 -546 -296.1467 -559.15625 -306.1875 -559.15625 z "
       style="color:#000000;fill:none;stroke:#ffffff;stroke-width:10;stroke-miterlimit:4;stroke-opacity:1;stroke-dasharray:none;marker:none;visibility:visible;display:inline;overflow:visible;enable-background:accumulate"
       id="path5372"
       d="m -306.1875,-564.15625 c -4.63274,0 -11.35495,0.59695 -16.3125,2.5625 a 5.0057863,5.0057863 0 0 0 -0.0312,0.0312 c -8.22411,3.33296 -13.52781,9.67711 -17.75,15.6875 -4.22219,6.01039 -7.64206,11.80463 -11.3125,15.1875 -6.64102,6.12073 -19.77884,19.40506 -20.1875,49.53125 -0.2482,18.29697 4.62506,45.42905 19.34375,62.53125 0.39172,0.45515 0.47135,1.14069 1.15625,4.375 0.6849,3.23431 1.99209,8.04263 5.53125,14.53125 7.14322,13.09622 23.76269,32.55994 42.65625,40.5 0.0679,0.0318 0.14959,0.0622 0.21875,0.0937 0.51787,0.23619 1.06335,0.45229 1.65625,0.65625 1.93819,0.66672 4.00432,1.03125 6.125,1.03125 5.1127,0 8.60539,-2.72093 11.46875,-4.9375 0.76343,-0.59098 0.68505,-0.63975 1.3125,-1.1875 0.62745,0.54775 0.54907,0.59652 1.3125,1.1875 2.86336,2.21657 6.35605,4.9375 11.46875,4.9375 2.12068,0 4.18681,-0.36453 6.125,-1.03125 0.5929,-0.20396 1.13838,-0.42006 1.65625,-0.65625 0.0202,-0.009 0.0424,-0.022 0.0625,-0.0312 0.0509,-0.0212 0.10534,-0.0411 0.15625,-0.0625 18.89531,-7.94091 35.48499,-27.40966 42.625,-40.5 3.53916,-6.48862 4.84635,-11.29694 5.53125,-14.53125 0.6849,-3.23431 0.76453,-3.91985 1.15625,-4.375 14.71869,-17.1022 19.59195,-44.23428 19.34375,-62.53125 -0.40861,-30.12257 -13.50941,-43.40516 -20.15625,-49.53125 -3.67255,-3.38482 -7.11363,-9.20872 -11.34375,-15.21875 -4.23012,-6.01003 -9.52712,-12.32379 -17.75,-15.65625 a 5.0057863,5.0057863 0 0 0 -0.0312,-0.0312 c -4.94777,-1.96168 -11.64851,-2.5625 -16.28125,-2.5625 -7.20651,0 -13.50691,3.94109 -18.5625,7.46875 -2.13736,1.4914 -3.83653,2.86881 -5.3125,4.09375 -1.47597,-1.22494 -3.17514,-2.60235 -5.3125,-4.09375 -5.05559,-3.52766 -11.35599,-7.46875 -18.5625,-7.46875 z"
       transform="translate(534,0)" />
    <path
       sodipodi:nodetypes="sscsssscscscsssscsscs"
       inkscape:connector-curvature="0"
       id="path5374"
       d="m 504.24053,750.72143 c 1.56,0 3.08171,-0.26212 4.5,-0.75 0.47276,-0.16263 0.92442,-0.3514 1.375,-0.5625 17.08257,-7.0926 33.81411,-26.4037 40.34375,-38.375 6.61812,-12.13353 4.37901,-16.34147 7.3125,-19.75 13.27889,-15.42924 18.35892,-41.97416 18.125,-59.21875 -0.39062,-28.79635 -11.98866,-39.84744 -18.5625,-45.90625 -9.04845,-8.33954 -13.84635,-24.3788 -27.5625,-29.9375 -3.39624,-1.34653 -10.55425,-2.21875 -14.4375,-2.21875 -10.0408,0 -23.875,13.15625 -23.875,13.15625 0,0 -13.8342,-13.15625 -23.875,-13.15625 -3.88325,0 -11.07251,0.87222 -14.46875,2.21875 -13.71615,5.5587 -18.4828,21.59796 -27.53125,29.9375 -6.57384,6.05881 -18.20313,17.1099 -18.59375,45.90625 -0.23392,17.24459 4.84611,43.78951 18.125,59.21875 2.93349,3.40853 0.69438,7.61647 7.3125,19.75 6.52964,11.9713 23.29243,31.2824 40.375,38.375 0.45058,0.2111 0.90224,0.39987 1.375,0.5625 1.41829,0.48788 2.94,0.75 4.5,0.75 5.37817,0 12.78125,-7.8125 12.78125,-7.8125 0,0 7.40308,7.8125 12.78125,7.8125 z"
       style="color:#000000;fill:#f5aa91;fill-opacity:1;fill-rule:nonzero;stroke:#ea8869;stroke-width:10;stroke-miterlimit:4;stroke-opacity:1;stroke-dasharray:none;marker:none;visibility:visible;display:inline;overflow:visible;enable-background:accumulate" />
    <path
       sodipodi:nodetypes="cccc"
       inkscape:connector-curvature="0"
       inkscape:original-d="m 491.44366,579.17739 0,81.25 m 0,20.3125 0,32.8125"
       inkscape:path-effect="#path-effect4902"
       id="path5376"
       d="m 491.44366,579.17739 0,81.25 m 0,20.3125 0,32.8125"
       style="color:#000000;fill:none;stroke:#ea8869;stroke-width:7;stroke-linecap:round;stroke-linejoin:miter;stroke-miterlimit:4;stroke-opacity:1;stroke-dasharray:none;stroke-dashoffset:0;marker:none;visibility:visible;display:inline;overflow:visible;enable-background:accumulate" />
    <path
       sodipodi:nodetypes="csc"
       inkscape:connector-curvature="0"
       inkscape:original-d="m 546.56605,689.08233 c 0,0 -11.31372,-12.72792 -20.5061,-12.02082 -9.19239,0.70711 -13.43503,10e-6 -16.26346,2.12133 1.41422,-0.35356 6.01041,-3.18199 6.8943,-4.5962 0.88388,-1.41421 1.94454,-4.06587 2.47487,-6.01041"
       inkscape:path-effect="#path-effect4899"
       id="path5378"
       d="m 546.56605,689.08233 c -4.90682,-6.48305 -12.45225,-10.90623 -20.5061,-12.02082 -5.48045,-0.75845 -11.16092,-0.0175 -16.26346,2.12133 2.72262,-0.70995 5.1918,-2.35607 6.8943,-4.5962 1.32582,-1.7445 2.18791,-3.83815 2.47487,-6.01041"
       style="color:#000000;fill:none;stroke:#ea8869;stroke-width:7;stroke-linecap:round;stroke-linejoin:round;stroke-miterlimit:4;stroke-opacity:1;stroke-dasharray:none;stroke-dashoffset:0;marker:none;visibility:visible;display:inline;overflow:visible;enable-background:accumulate" />
    <path
       style="color:#000000;fill:none;stroke:#ea8869;stroke-width:7;stroke-linecap:round;stroke-linejoin:round;stroke-miterlimit:4;stroke-opacity:1;stroke-dasharray:none;stroke-dashoffset:0;marker:none;visibility:visible;display:inline;overflow:visible;enable-background:accumulate"
       d="m 544.31173,668.11309 c 3.22884,-2.7299 5.57596,-6.48672 6.61351,-10.58565 1.03755,-4.09893 0.76048,-8.52001 -0.78071,-12.45733 -1.74392,-4.45525 -5.10757,-8.2561 -9.31772,-10.5288 -0.0192,1.44765 -0.33244,2.8908 -0.91525,4.21609 -1.44467,3.28515 -4.6215,5.74767 -8.16309,6.32764"
       id="path5380"
       inkscape:path-effect="#path-effect4896"
       inkscape:original-d="m 544.31173,668.11309 c 0,0 9.07256,-14.4114 5.8328,-23.04298 -3.23977,-8.63156 -6.49248,-8.40325 -9.31772,-10.5288 0.73351,1.25976 -2.51969,3.76113 -0.91525,4.21609 1.60446,0.45494 -10.17831,6.35948 -8.16309,6.32764"
       inkscape:connector-curvature="0"
       sodipodi:nodetypes="csccc" />
    <path
       sodipodi:nodetypes="csccc"
       inkscape:connector-curvature="0"
       inkscape:original-d="m 543.81173,603.11309 c 0,0 -13.17744,-0.4114 -16.4172,-9.04298 -3.23977,-8.63156 9.00752,-14.65325 6.18228,-16.7788 0.73351,1.25976 -14.01969,3.7611 -12.41525,4.21609 1.60446,0.45494 -10.92831,-2.64052 -8.91309,-2.67236"
       inkscape:path-effect="#path-effect4893"
       id="path5382"
       d="m 543.81173,603.11309 c -3.33222,0.7694 -6.94186,0.26706 -9.93738,-1.38295 -2.99553,-1.65001 -5.34924,-4.43242 -6.47982,-7.66003 -1.06798,-3.04889 -1.04045,-6.46888 0.0765,-9.50018 1.11691,-3.03131 3.31495,-5.65155 6.10582,-7.27862 -3.44355,2.84741 -7.94986,4.37771 -12.41525,4.21609 -3.13355,-0.11342 -6.23405,-1.04302 -8.91309,-2.67236"
       style="color:#000000;fill:none;stroke:#ea8869;stroke-width:7;stroke-linecap:round;stroke-linejoin:round;stroke-miterlimit:4;stroke-opacity:1;stroke-dasharray:none;stroke-dashoffset:0;marker:none;visibility:visible;display:inline;overflow:visible;enable-background:accumulate" />
    <path
       sodipodi:nodetypes="csccc"
       inkscape:connector-curvature="0"
       inkscape:original-d="m 507.71229,720.82913 c 0,0 6.09249,9.71109 8.92922,1.49866 2.83672,-8.21242 18.5488,-14.23879 18.21359,-17.75839 -0.43576,1.39109 -4.4765,0.67516 -3.73068,2.1668 0.74583,1.49164 -18.80709,-7.02949 -17.42481,-5.56272"
       inkscape:path-effect="#path-effect4890"
       id="path5384"
       d="m 507.71229,720.82913 c 2.80593,1.18407 5.89047,1.70177 8.92922,1.49866 4.60323,-0.30768 9.07494,-2.30324 12.37819,-5.52394 3.30326,-3.2207 5.41134,-7.64048 5.8354,-12.23445 -1.12601,0.9032 -2.38821,1.6363 -3.73068,2.1668 -3.06993,1.21315 -6.56006,1.33067 -9.70465,0.32679 -3.14459,-1.00388 -5.92103,-3.12196 -7.72016,-5.88951"
       style="color:#000000;fill:none;stroke:#ea8869;stroke-width:7;stroke-linecap:round;stroke-linejoin:round;stroke-miterlimit:4;stroke-opacity:1;stroke-dasharray:none;stroke-dashoffset:0;marker:none;visibility:visible;display:inline;overflow:visible;enable-background:accumulate" />
    <path
       style="color:#000000;fill:none;stroke:#ea8869;stroke-width:7;stroke-linecap:round;stroke-linejoin:round;stroke-miterlimit:4;stroke-opacity:1;stroke-dasharray:none;stroke-dashoffset:0;marker:none;visibility:visible;display:inline;overflow:visible;enable-background:accumulate"
       d="m 556.5396,625.5757 c -5.12288,-4.08339 -11.74712,-6.23805 -18.29195,-5.94981 -6.54484,0.28824 -12.95401,3.01691 -17.69808,7.53484 -4.02058,3.82893 -6.8344,8.90704 -7.94927,14.34605 1.04526,-2.61231 1.18674,-5.57652 0.39503,-8.2765 -0.61654,-2.1026 -1.78936,-4.03937 -3.36691,-5.56003"
       id="path5386"
       inkscape:path-effect="#path-effect4887"
       inkscape:original-d="m 556.5396,625.5757 c 0,0 -31.10115,-6.23154 -35.99003,1.58503 -4.88888,7.81657 -7.97687,10.81062 -7.94927,14.34605 0.55518,-1.34789 1.00818,-6.7256 0.39503,-8.2765 -0.61317,-1.55089 -2.1171,-3.97875 -3.36691,-5.56003"
       inkscape:connector-curvature="0"
       sodipodi:nodetypes="csccc" />
    <path
       style="color:#000000;fill:none;stroke:#ea8869;stroke-width:7;stroke-linecap:round;stroke-linejoin:round;stroke-miterlimit:4;stroke-opacity:1;stroke-dasharray:none;stroke-dashoffset:0;marker:none;visibility:visible;display:inline;overflow:visible;enable-background:accumulate"
       d="m 436.32126,689.08233 c 4.90682,-6.48305 12.45225,-10.90623 20.5061,-12.02082 5.48045,-0.75845 11.16092,-0.0175 16.26346,2.12133 -2.72262,-0.70995 -5.1918,-2.35607 -6.8943,-4.5962 -1.32582,-1.7445 -2.18791,-3.83815 -2.47487,-6.01041"
       id="path5388"
       inkscape:path-effect="#path-effect4884"
       inkscape:original-d="m 436.32126,689.08233 c 0,0 11.31371,-12.72792 20.5061,-12.02082 9.19239,0.70711 13.43503,10e-6 16.26346,2.12133 -1.41422,-0.35356 -6.01041,-3.18199 -6.8943,-4.5962 -0.88388,-1.41421 -1.94454,-4.06587 -2.47487,-6.01041"
       inkscape:connector-curvature="0"
       sodipodi:nodetypes="csc" />
    <path
       sodipodi:nodetypes="csccc"
       inkscape:connector-curvature="0"
       inkscape:original-d="m 438.57557,668.11309 c 0,0 -9.07256,-14.4114 -5.8328,-23.04298 3.23977,-8.63156 6.49249,-8.40325 9.31773,-10.5288 -0.73351,1.25976 2.51969,3.76113 0.91524,4.21609 -1.60445,0.45494 10.17831,6.35948 8.16309,6.32764"
       inkscape:path-effect="#path-effect4881"
       id="path5390"
       d="m 438.57557,668.11309 c -3.22884,-2.7299 -5.57596,-6.48672 -6.61351,-10.58565 -1.03755,-4.09893 -0.76048,-8.52001 0.78071,-12.45733 1.74392,-4.45525 5.10758,-8.2561 9.31773,-10.5288 0.0192,1.44765 0.33244,2.8908 0.91524,4.21609 1.44466,3.28515 4.62149,5.74768 8.16309,6.32764"
       style="color:#000000;fill:none;stroke:#ea8869;stroke-width:7;stroke-linecap:round;stroke-linejoin:round;stroke-miterlimit:4;stroke-opacity:1;stroke-dasharray:none;stroke-dashoffset:0;marker:none;visibility:visible;display:inline;overflow:visible;enable-background:accumulate" />
    <path
       style="color:#000000;fill:none;stroke:#ea8869;stroke-width:7;stroke-linecap:round;stroke-linejoin:round;stroke-miterlimit:4;stroke-opacity:1;stroke-dasharray:none;stroke-dashoffset:0;marker:none;visibility:visible;display:inline;overflow:visible;enable-background:accumulate"
       d="m 439.07557,603.11309 c 3.33222,0.76939 6.94186,0.26705 9.93738,-1.38295 2.99553,-1.65001 5.34924,-4.43242 6.47982,-7.66003 1.06798,-3.04889 1.04045,-6.46888 -0.0765,-9.50018 -1.11691,-3.03131 -3.31495,-5.65155 -6.10582,-7.27862 3.44355,2.84741 7.94986,4.37771 12.41524,4.21609 3.13355,-0.11341 6.23405,-1.04302 8.91309,-2.67236"
       id="path5392"
       inkscape:path-effect="#path-effect4878"
       inkscape:original-d="m 439.07557,603.11309 c 0,0 13.17744,-0.4114 16.4172,-9.04298 3.23977,-8.63156 -9.00751,-14.65325 -6.18227,-16.7788 -0.73351,1.25976 14.01969,3.7611 12.41524,4.21609 -1.60445,0.45494 10.92831,-2.64052 8.91309,-2.67236"
       inkscape:connector-curvature="0"
       sodipodi:nodetypes="csccc" />
    <path
       style="color:#000000;fill:none;stroke:#ea8869;stroke-width:7;stroke-linecap:round;stroke-linejoin:round;stroke-miterlimit:4;stroke-opacity:1;stroke-dasharray:none;stroke-dashoffset:0;marker:none;visibility:visible;display:inline;overflow:visible;enable-background:accumulate"
       d="m 475.17502,720.82913 c -2.80593,1.18407 -5.89047,1.70177 -8.92922,1.49866 -4.60323,-0.30768 -9.07494,-2.30324 -12.37819,-5.52394 -3.30326,-3.2207 -5.41134,-7.64048 -5.8354,-12.23445 1.12601,0.9032 2.38821,1.6363 3.73068,2.1668 3.06993,1.21315 6.56006,1.33067 9.70465,0.32679 3.14459,-1.00388 5.92103,-3.12196 7.72016,-5.88951"
       id="path5394"
       inkscape:path-effect="#path-effect4875"
       inkscape:original-d="m 475.17502,720.82913 c 0,0 -6.0925,9.71109 -8.92922,1.49866 -2.83672,-8.21242 -18.5488,-14.23879 -18.21359,-17.75839 0.43576,1.39109 4.4765,0.67516 3.73068,2.1668 -0.74583,1.49164 18.80709,-7.02949 17.42481,-5.56272"
       inkscape:connector-curvature="0"
       sodipodi:nodetypes="csccc" />
    <path
       sodipodi:nodetypes="csccc"
       inkscape:connector-curvature="0"
       inkscape:original-d="m 426.3477,625.5757 c 4.72453,8.03805 52.83177,6.44466 35.99004,1.58503 -8.85815,-2.55599 7.97687,10.81062 7.94927,14.34605 -0.55518,-1.34789 -1.00818,-6.7256 -0.39503,-8.2765 0.61317,-1.55089 2.1171,-3.97875 3.36691,-5.56003"
       inkscape:path-effect="#path-effect4872"
       id="path5396"
       d="m 426.3477,625.5757 c 5.12288,-4.08339 11.74712,-6.23805 18.29196,-5.94981 6.54483,0.28824 12.95401,3.0169 17.69808,7.53484 4.02058,3.82893 6.8344,8.90704 7.94927,14.34605 -1.04526,-2.61231 -1.18674,-5.57652 -0.39503,-8.2765 0.61654,-2.1026 1.78936,-4.03937 3.36691,-5.56003"
       style="color:#000000;fill:none;stroke:#ea8869;stroke-width:7;stroke-linecap:round;stroke-linejoin:round;stroke-miterlimit:4;stroke-opacity:1;stroke-dasharray:none;stroke-dashoffset:0;marker:none;visibility:visible;display:inline;overflow:visible;enable-background:accumulate" />
    <g
       style="font-size:18px;font-style:oblique;font-weight:bold;line-height:125%;letter-spacing:0px;word-spacing:0px;fill:#ffffff;fill-opacity:1;stroke:none;font-family:Sans;-inkscape-font-specification:Oswald Bold Oblique"
       id="text4319">
      <path
         d="m 446.08954,675.34656 0.89887,-5.09766 1.31641,0 -0.0634,0.35938 c 0.14777,-0.13932 0.3158,-0.25228 0.50409,-0.33887 0.18828,-0.0866 0.38136,-0.13118 0.57925,-0.13379 0.28295,0.0139 0.48304,0.13355 0.60029,0.35889 0.11725,0.22534 0.15318,0.4729 0.10782,0.74267 l -0.72461,4.10938 -1.31641,0 0.68397,-3.87891 c 0.0155,-0.062 0.0188,-0.13232 0.01,-0.21094 -0.009,-0.0786 -0.0652,-0.12157 -0.16867,-0.1289 -0.0783,0.006 -0.1552,0.0392 -0.23063,0.10058 -0.0754,0.0614 -0.13657,0.11638 -0.1834,0.16504 l -0.69706,3.95313 z"
         style="font-size:8px;font-variant:normal;font-weight:300;font-stretch:normal;text-align:center;text-anchor:middle;font-family:Oswald;-inkscape-font-specification:Oswald Bold Oblique;fill:#ffffff"
         id="path4326" />
      <path
         d="m 450.18241,674.02234 0.38228,-2.16797 c 0.0889,-0.52791 0.28606,-0.94474 0.5916,-1.25049 0.30553,-0.30574 0.738,-0.46183 1.29741,-0.46826 0.55799,0.006 0.93875,0.16179 1.1423,0.4668 0.20353,0.30501 0.2569,0.72233 0.1601,1.25195 l -0.38228,2.16797 c -0.0917,0.44271 -0.3144,0.79167 -0.66799,1.04687 -0.3536,0.25521 -0.75058,0.38542 -1.19095,0.39063 -0.43597,-0.005 -0.78321,-0.13615 -1.04171,-0.39209 -0.2585,-0.25594 -0.35542,-0.60441 -0.29076,-1.04541 z m 1.88397,0.0156 0.44496,-2.52343 c 0.0192,-0.093 0.0151,-0.17944 -0.0124,-0.25928 -0.0275,-0.0798 -0.10091,-0.12231 -0.2202,-0.12744 -0.11652,0.006 -0.19897,0.0498 -0.24737,0.13183 -0.0484,0.082 -0.0785,0.167 -0.0904,0.25489 l -0.44496,2.52343 c -0.0215,0.0931 -0.0258,0.1862 -0.0126,0.2793 0.0131,0.0931 0.0819,0.14323 0.20639,0.15039 0.13163,-0.007 0.22411,-0.0558 0.27747,-0.14746 0.0533,-0.0916 0.0864,-0.18571 0.0991,-0.28223 z"
         style="font-size:8px;font-variant:normal;font-weight:300;font-stretch:normal;text-align:center;text-anchor:middle;font-family:Oswald;-inkscape-font-specification:Oswald Bold Oblique;fill:#ffffff"
         id="path4328" />
      <path
         d="m 454.90204,675.34656 0.89887,-5.09766 1.31641,0 -0.0634,0.35938 c 0.14777,-0.13932 0.3158,-0.25228 0.50409,-0.33887 0.18828,-0.0866 0.38136,-0.13118 0.57925,-0.13379 0.28295,0.0139 0.48304,0.13355 0.60029,0.35889 0.11725,0.22534 0.15318,0.4729 0.10782,0.74267 l -0.72461,4.10938 -1.31641,0 0.68397,-3.87891 c 0.0155,-0.062 0.0188,-0.13232 0.01,-0.21094 -0.009,-0.0786 -0.0652,-0.12157 -0.16867,-0.1289 -0.0783,0.006 -0.1552,0.0392 -0.23063,0.10058 -0.0754,0.0614 -0.13657,0.11638 -0.1834,0.16504 l -0.69706,3.95313 z"
         style="font-size:8px;font-variant:normal;font-weight:300;font-stretch:normal;text-align:center;text-anchor:middle;font-family:Oswald;-inkscape-font-specification:Oswald Bold Oblique;fill:#ffffff"
         id="path4330" />
      <path
         d="m 460.8786,675.34656 -0.0359,-0.52735 c -0.12876,0.24886 -0.2898,0.41911 -0.48312,0.51075 -0.19333,0.0916 -0.40718,0.13492 -0.64156,0.12988 -0.3831,-0.015 -0.63289,-0.14909 -0.74937,-0.40234 -0.11647,-0.25326 -0.14478,-0.53581 -0.0849,-0.84766 0.12213,-0.61141 0.39164,-1.0673 0.80854,-1.36768 0.4169,-0.30037 0.91375,-0.55021 1.49056,-0.74951 l 0.0758,-0.42969 c 0.0319,-0.17097 0.0341,-0.30265 0.007,-0.39502 -0.0274,-0.0924 -0.0958,-0.13907 -0.20527,-0.14013 -0.14767,0.007 -0.24871,0.0646 -0.30312,0.17383 -0.0544,0.10921 -0.0903,0.22965 -0.10766,0.36132 l -0.051,0.28907 -1.27734,0 c 0.1044,-0.58512 0.32954,-1.03402 0.67545,-1.34668 0.3459,-0.31266 0.80196,-0.47054 1.36818,-0.47364 0.39771,0.0106 0.71433,0.15154 0.94986,0.42286 0.23552,0.27132 0.32399,0.60954 0.26542,1.01464 l -0.42705,2.42188 c -0.0407,0.23299 -0.066,0.46037 -0.0759,0.68213 -0.01,0.22176 -0.008,0.44621 0.005,0.67334 z m -0.0624,-1.15235 0.2172,-1.2539 c -0.19948,0.13574 -0.37797,0.29785 -0.53547,0.48633 -0.1575,0.18847 -0.26136,0.40918 -0.31157,0.66211 -0.0182,0.091 -0.0152,0.17561 0.009,0.2539 0.0241,0.0783 0.0874,0.11996 0.18987,0.125 0.088,-0.004 0.16808,-0.0357 0.24025,-0.0942 0.0722,-0.0585 0.13576,-0.11824 0.19078,-0.1792 z"
         style="font-size:8px;font-variant:normal;font-weight:300;font-stretch:normal;text-align:center;text-anchor:middle;font-family:Oswald;-inkscape-font-specification:Oswald Bold Oblique;fill:#ffffff"
         id="path4332" />
      <path
         d="m 462.68541,674.11609 1.07119,-0.35938 c 0.0151,0.14527 0.0517,0.30103 0.10998,0.46729 0.0582,0.16626 0.16699,0.25659 0.32624,0.271 0.096,-0.002 0.16633,-0.0295 0.21093,-0.083 0.0446,-0.0535 0.0733,-0.12223 0.0861,-0.20606 0.0244,-0.17773 -0.0244,-0.34863 -0.14641,-0.51269 -0.12203,-0.16406 -0.27372,-0.33301 -0.45506,-0.50684 l -0.18247,-0.18359 c -0.20247,-0.1971 -0.36989,-0.41715 -0.50225,-0.66016 -0.13236,-0.243 -0.17519,-0.52164 -0.12848,-0.83594 0.0973,-0.45873 0.32811,-0.80199 0.69233,-1.02978 0.36422,-0.22778 0.76351,-0.34155 1.19788,-0.34131 0.39397,0.0142 0.70295,0.16154 0.92696,0.44189 0.224,0.28036 0.35465,0.60833 0.39194,0.98389 l -1.00248,0.32422 c -0.0259,-0.15543 -0.0768,-0.32015 -0.15262,-0.49414 -0.0758,-0.17399 -0.20064,-0.26839 -0.37437,-0.2832 -0.0982,0.004 -0.17682,0.0382 -0.23594,0.10302 -0.0591,0.0649 -0.0957,0.1373 -0.10961,0.21729 -0.015,0.13119 0.0355,0.27311 0.15149,0.42578 0.11598,0.15267 0.25103,0.30241 0.40516,0.44922 l 0.2043,0.21484 c 0.19895,0.20321 0.36783,0.43156 0.50665,0.68506 0.13881,0.2535 0.1866,0.53166 0.14338,0.83447 -0.0867,0.42668 -0.29398,0.76864 -0.62181,1.02588 -0.32783,0.25725 -0.70023,0.38924 -1.11719,0.396 -0.41194,-0.007 -0.73692,-0.1342 -0.97492,-0.38037 -0.238,-0.24618 -0.37832,-0.5673 -0.42095,-0.96338 z"
         style="font-size:8px;font-variant:normal;font-weight:300;font-stretch:normal;text-align:center;text-anchor:middle;font-family:Oswald;-inkscape-font-specification:Oswald Bold Oblique;fill:#ffffff"
         id="path4334" />
      <path
         d="m 466.45671,673.59656 0.43532,-2.46875 -0.375,0 0.15497,-0.87891 0.375,0 0.2955,-1.67578 1.3164,0 -0.29549,1.67578 0.63281,0 -0.15497,0.87891 -0.63282,0 -0.49111,2.78515 c -0.0261,0.13363 -0.0196,0.2365 0.0193,0.3086 0.039,0.0721 0.12645,0.10856 0.26245,0.10937 0.12726,0.002 0.25624,-0.006 0.38695,-0.0234 l -0.2579,1.01953 c -0.1347,0.0374 -0.26437,0.0602 -0.38901,0.0684 -0.12465,0.008 -0.25087,0.0114 -0.37867,0.01 -0.53283,-0.0197 -0.84175,-0.2098 -0.92678,-0.57031 -0.085,-0.36051 -0.0774,-0.77327 0.023,-1.23828 z"
         style="font-size:8px;font-variant:normal;font-weight:300;font-stretch:normal;text-align:center;text-anchor:middle;font-family:Oswald;-inkscape-font-specification:Oswald Bold Oblique;fill:#ffffff"
         id="path4336" />
      <path
         d="m 468.83866,674.02234 0.38228,-2.16797 c 0.0889,-0.52791 0.28606,-0.94474 0.5916,-1.25049 0.30553,-0.30574 0.738,-0.46183 1.29741,-0.46826 0.55799,0.006 0.93875,0.16179 1.1423,0.4668 0.20353,0.30501 0.2569,0.72233 0.1601,1.25195 l -0.38228,2.16797 c -0.0917,0.44271 -0.3144,0.79167 -0.66799,1.04687 -0.3536,0.25521 -0.75058,0.38542 -1.19095,0.39063 -0.43597,-0.005 -0.78321,-0.13615 -1.04171,-0.39209 -0.2585,-0.25594 -0.35542,-0.60441 -0.29076,-1.04541 z m 1.88397,0.0156 0.44496,-2.52343 c 0.0192,-0.093 0.0151,-0.17944 -0.0124,-0.25928 -0.0275,-0.0798 -0.10091,-0.12231 -0.2202,-0.12744 -0.11652,0.006 -0.19897,0.0498 -0.24737,0.13183 -0.0484,0.082 -0.0785,0.167 -0.0904,0.25489 l -0.44496,2.52343 c -0.0215,0.0931 -0.0258,0.1862 -0.0126,0.2793 0.0131,0.0931 0.0819,0.14323 0.20639,0.15039 0.13163,-0.007 0.22411,-0.0558 0.27747,-0.14746 0.0533,-0.0916 0.0864,-0.18571 0.0991,-0.28223 z"
         style="font-size:8px;font-variant:normal;font-weight:300;font-stretch:normal;text-align:center;text-anchor:middle;font-family:Oswald;-inkscape-font-specification:Oswald Bold Oblique;fill:#ffffff"
         id="path4338" />
      <path
         d="m 471.8197,676.45593 0.16807,-0.95312 c 0.0522,0.0163 0.1065,0.0306 0.16283,0.043 0.0563,0.0124 0.11296,0.0189 0.1699,0.0195 0.11927,-0.005 0.20729,-0.0522 0.26405,-0.14063 0.0568,-0.0884 0.0932,-0.18603 0.10928,-0.29297 l 0.86099,-4.88281 1.30859,0 -0.88096,4.9961 c -0.072,0.40519 -0.23367,0.72469 -0.48493,0.95849 -0.25127,0.23381 -0.58367,0.35311 -0.9972,0.35791 -0.11738,-7.3e-4 -0.23308,-0.011 -0.34711,-0.0308 -0.11403,-0.0198 -0.22519,-0.0447 -0.33351,-0.0747 z m 1.81364,-6.65234 0.21697,-1.23047 1.30859,0 -0.21697,1.23047 z"
         style="font-size:8px;font-variant:normal;font-weight:300;font-stretch:normal;text-align:center;text-anchor:middle;font-family:Oswald;-inkscape-font-specification:Oswald Bold Oblique;fill:#ffffff"
         id="path4340" />
      <path
         d="m 474.70673,675.34656 0.89887,-5.09766 1.3164,0 -0.89887,5.09766 z m 0.97739,-5.54297 0.21697,-1.23047 1.31641,0 -0.21697,1.23047 z"
         style="font-size:8px;font-variant:normal;font-weight:300;font-stretch:normal;text-align:center;text-anchor:middle;font-family:Oswald;-inkscape-font-specification:Oswald Bold Oblique;fill:#ffffff"
         id="path4342" />
      <path
         d="m 476.76141,675.34656 0.89888,-5.09766 1.3164,0 -0.0641,0.36328 c 0.14377,-0.13964 0.30649,-0.2539 0.48818,-0.34277 0.18168,-0.0889 0.36751,-0.13476 0.55748,-0.1377 0.17728,0.004 0.32583,0.061 0.44563,0.16993 0.11979,0.10889 0.20182,0.24365 0.24609,0.40429 0.15491,-0.16918 0.33324,-0.30639 0.53498,-0.41162 0.20174,-0.10522 0.41133,-0.15942 0.62877,-0.1626 0.28337,0.0142 0.48519,0.13518 0.60546,0.3628 0.12026,0.22762 0.15792,0.47648 0.11299,0.74658 l -0.72392,4.10547 -1.31641,0 0.67777,-3.84375 c 0.0167,-0.072 0.0226,-0.15063 0.0177,-0.23584 -0.005,-0.0852 -0.0526,-0.13159 -0.14294,-0.13916 -0.0704,0.007 -0.14577,0.0448 -0.22612,0.11377 -0.0803,0.0689 -0.14176,0.12736 -0.18422,0.17529 l -0.69293,3.92969 -1.31641,0 0.67915,-3.85156 c 0.0158,-0.07 0.0214,-0.14681 0.0167,-0.23047 -0.005,-0.0837 -0.0486,-0.12923 -0.13166,-0.13672 -0.0786,0.006 -0.15662,0.0427 -0.23421,0.10986 -0.0776,0.0671 -0.14045,0.12818 -0.18854,0.18311 l -0.68833,3.92578 z"
         style="font-size:8px;font-variant:normal;font-weight:300;font-stretch:normal;text-align:center;text-anchor:middle;font-family:Oswald;-inkscape-font-specification:Oswald Bold Oblique;fill:#ffffff"
         id="path4344" />
      <path
         d="m 485.27537,669.995 -0.50551,-1.58594 1.07032,0 0.1467,0.78515 0.43142,-0.78515 1.07422,0 -1.08434,1.58594 z m -1.62121,4.12109 1.07119,-0.35938 c 0.0151,0.14527 0.0517,0.30103 0.10998,0.46729 0.0582,0.16626 0.16699,0.25659 0.32624,0.271 0.096,-0.002 0.16633,-0.0295 0.21093,-0.083 0.0446,-0.0535 0.0733,-0.12223 0.0861,-0.20606 0.0244,-0.17773 -0.0244,-0.34863 -0.14641,-0.51269 -0.12203,-0.16406 -0.27372,-0.33301 -0.45506,-0.50684 l -0.18247,-0.18359 c -0.20247,-0.1971 -0.36989,-0.41715 -0.50225,-0.66016 -0.13236,-0.243 -0.17519,-0.52164 -0.12848,-0.83594 0.0973,-0.45873 0.32811,-0.80199 0.69233,-1.02978 0.36422,-0.22778 0.76351,-0.34155 1.19788,-0.34131 0.39397,0.0142 0.70295,0.16154 0.92696,0.44189 0.224,0.28036 0.35465,0.60833 0.39194,0.98389 l -1.00248,0.32422 c -0.0259,-0.15543 -0.0768,-0.32015 -0.15262,-0.49414 -0.0758,-0.17399 -0.20064,-0.26839 -0.37437,-0.2832 -0.0982,0.004 -0.17682,0.0382 -0.23594,0.10302 -0.0591,0.0649 -0.0957,0.1373 -0.10961,0.21729 -0.015,0.13119 0.0355,0.27311 0.15149,0.42578 0.11598,0.15267 0.25103,0.30241 0.40516,0.44922 l 0.2043,0.21484 c 0.19895,0.20321 0.36783,0.43156 0.50665,0.68506 0.13881,0.2535 0.1866,0.53166 0.14338,0.83447 -0.0867,0.42668 -0.29398,0.76864 -0.62181,1.02588 -0.32783,0.25725 -0.70023,0.38924 -1.11719,0.396 -0.41194,-0.007 -0.73692,-0.1342 -0.97492,-0.38037 -0.238,-0.24618 -0.37832,-0.5673 -0.42095,-0.96338 z"
         style="font-size:8px;font-variant:normal;font-weight:300;font-stretch:normal;text-align:center;text-anchor:middle;font-family:Oswald;-inkscape-font-specification:Oswald Bold Oblique;fill:#ffffff"
         id="path4346" />
      <path
         d="m 487.03485,675.34656 0.89887,-5.09766 1.31641,0 -0.89887,5.09766 z m 0.9774,-5.54297 0.21697,-1.23047 1.3164,0 -0.21697,1.23047 z"
         style="font-size:8px;font-variant:normal;font-weight:300;font-stretch:normal;text-align:center;text-anchor:middle;font-family:Oswald;-inkscape-font-specification:Oswald Bold Oblique;fill:#ffffff"
         id="path4348" />
      <path
         d="m 489.08954,675.34656 0.89887,-5.09766 1.30859,0 -0.073,0.41406 c 0.10867,-0.13997 0.22963,-0.25553 0.36289,-0.34668 0.13326,-0.0911 0.27537,-0.13834 0.42634,-0.1416 0.0601,4.1e-4 0.11867,0.004 0.17558,0.0122 0.0569,0.008 0.11457,0.0167 0.173,0.0269 l -0.27374,1.10937 c -0.0703,-0.008 -0.14009,-0.0169 -0.20939,-0.0254 -0.0693,-0.008 -0.14175,-0.013 -0.21732,-0.0137 -0.1802,0.001 -0.32606,0.0566 -0.43756,0.1665 -0.11151,0.10995 -0.18561,0.26799 -0.22228,0.47412 l -0.60338,3.42188 z"
         style="font-size:8px;font-variant:normal;font-weight:300;font-stretch:normal;text-align:center;text-anchor:middle;font-family:Oswald;-inkscape-font-specification:Oswald Bold Oblique;fill:#ffffff"
         id="path4350" />
      <path
         d="m 491.89423,675.34656 0.89887,-5.09766 1.3164,0 -0.89887,5.09766 z m 0.97739,-5.54297 0.21697,-1.23047 1.31641,0 -0.21697,1.23047 z"
         style="font-size:8px;font-variant:normal;font-weight:300;font-stretch:normal;text-align:center;text-anchor:middle;font-family:Oswald;-inkscape-font-specification:Oswald Bold Oblique;fill:#ffffff"
         id="path4352" />
      <path
         d="m 494.34734,673.59656 0.43531,-2.46875 -0.375,0 0.15498,-0.87891 0.375,0 0.29549,-1.67578 1.31641,0 -0.29549,1.67578 0.63281,0 -0.15498,0.87891 -0.63281,0 -0.49111,2.78515 c -0.0261,0.13363 -0.0197,0.2365 0.0193,0.3086 0.039,0.0721 0.12644,0.10856 0.26245,0.10937 0.12726,0.002 0.25624,-0.006 0.38694,-0.0234 l -0.2579,1.01953 c -0.13469,0.0374 -0.26436,0.0602 -0.389,0.0684 -0.12465,0.008 -0.25087,0.0114 -0.37868,0.01 -0.53282,-0.0197 -0.84175,-0.2098 -0.92678,-0.57031 -0.085,-0.36051 -0.0773,-0.77327 0.023,-1.23828 z"
         style="font-size:8px;font-variant:normal;font-weight:300;font-stretch:normal;text-align:center;text-anchor:middle;font-family:Oswald;-inkscape-font-specification:Oswald Bold Oblique;fill:#ffffff"
         id="path4354" />
      <path
         d="m 496.5661,675.34656 0.89887,-5.09766 1.31641,0 -0.89887,5.09766 z m 0.9774,-5.54297 0.21697,-1.23047 1.3164,0 -0.21697,1.23047 z"
         style="font-size:8px;font-variant:normal;font-weight:300;font-stretch:normal;text-align:center;text-anchor:middle;font-family:Oswald;-inkscape-font-specification:Oswald Bold Oblique;fill:#ffffff"
         id="path4356" />
      <path
         d="m 499.76354,674.11609 1.07118,-0.35938 c 0.0151,0.14527 0.0517,0.30103 0.10999,0.46729 0.0582,0.16626 0.16699,0.25659 0.32624,0.271 0.096,-0.002 0.16632,-0.0295 0.21092,-0.083 0.0446,-0.0535 0.0733,-0.12223 0.0861,-0.20606 0.0244,-0.17773 -0.0244,-0.34863 -0.14641,-0.51269 -0.12204,-0.16406 -0.27372,-0.33301 -0.45507,-0.50684 l -0.18247,-0.18359 c -0.20247,-0.1971 -0.36988,-0.41715 -0.50224,-0.66016 -0.13237,-0.243 -0.17519,-0.52164 -0.12848,-0.83594 0.0973,-0.45873 0.3281,-0.80199 0.69232,-1.02978 0.36422,-0.22778 0.76352,-0.34155 1.19788,-0.34131 0.39397,0.0142 0.70296,0.16154 0.92697,0.44189 0.22399,0.28036 0.35464,0.60833 0.39194,0.98389 l -1.00249,0.32422 c -0.0259,-0.15543 -0.0768,-0.32015 -0.15261,-0.49414 -0.0759,-0.17399 -0.20064,-0.26839 -0.37438,-0.2832 -0.0982,0.004 -0.17682,0.0382 -0.23594,0.10302 -0.0591,0.0649 -0.0957,0.1373 -0.1096,0.21729 -0.015,0.13119 0.0355,0.27311 0.15148,0.42578 0.11598,0.15267 0.25104,0.30241 0.40517,0.44922 l 0.2043,0.21484 c 0.19895,0.20321 0.36783,0.43156 0.50664,0.68506 0.13881,0.2535 0.18661,0.53166 0.14339,0.83447 -0.0867,0.42668 -0.29399,0.76864 -0.62181,1.02588 -0.32784,0.25725 -0.70023,0.38924 -1.11719,0.396 -0.41195,-0.007 -0.73692,-0.1342 -0.97492,-0.38037 -0.23801,-0.24618 -0.37832,-0.5673 -0.42095,-0.96338 z"
         style="font-size:8px;font-variant:normal;font-weight:300;font-stretch:normal;text-align:center;text-anchor:middle;font-family:Oswald;-inkscape-font-specification:Oswald Bold Oblique;fill:#ffffff"
         id="path4358" />
      <path
         d="m 503.87079,675.34656 -0.15972,-5.09766 1.23437,0 -0.10292,3.44141 1.03261,-3.44141 1.23437,0 -1.90668,5.09766 z"
         style="font-size:8px;font-variant:normal;font-weight:300;font-stretch:normal;text-align:center;text-anchor:middle;font-family:Oswald;-inkscape-font-specification:Oswald Bold Oblique;fill:#ffffff"
         id="path4360" />
      <path
         d="m 506.79179,674.02234 0.38228,-2.16797 c 0.0889,-0.52791 0.28605,-0.94474 0.59159,-1.25049 0.30554,-0.30574 0.73801,-0.46183 1.29741,-0.46826 0.55799,0.006 0.93876,0.16179 1.1423,0.4668 0.20354,0.30501 0.25691,0.72233 0.1601,1.25195 l -0.38227,2.16797 c -0.0917,0.44271 -0.31441,0.79167 -0.668,1.04687 -0.3536,0.25521 -0.75058,0.38542 -1.19095,0.39063 -0.43597,-0.005 -0.7832,-0.13615 -1.0417,-0.39209 -0.2585,-0.25594 -0.35542,-0.60441 -0.29076,-1.04541 z m 1.88396,0.0156 0.44496,-2.52343 c 0.0192,-0.093 0.0151,-0.17944 -0.0124,-0.25928 -0.0275,-0.0798 -0.10091,-0.12231 -0.2202,-0.12744 -0.11651,0.006 -0.19897,0.0498 -0.24737,0.13183 -0.0484,0.082 -0.0785,0.167 -0.0904,0.25489 l -0.44496,2.52343 c -0.0215,0.0931 -0.0257,0.1862 -0.0126,0.2793 0.0131,0.0931 0.0819,0.14323 0.20639,0.15039 0.13163,-0.007 0.22412,-0.0558 0.27747,-0.14746 0.0534,-0.0916 0.0864,-0.18571 0.0991,-0.28223 z"
         style="font-size:8px;font-variant:normal;font-weight:300;font-stretch:normal;text-align:center;text-anchor:middle;font-family:Oswald;-inkscape-font-specification:Oswald Bold Oblique;fill:#ffffff"
         id="path4362" />
      <path
         d="m 509.77283,676.45593 0.16806,-0.95312 c 0.0522,0.0163 0.10651,0.0306 0.16284,0.043 0.0563,0.0124 0.11296,0.0189 0.16989,0.0195 0.11928,-0.005 0.20729,-0.0522 0.26406,-0.14063 0.0568,-0.0884 0.0932,-0.18603 0.10927,-0.29297 l 0.86099,-4.88281 1.3086,0 -0.88097,4.9961 c -0.072,0.40519 -0.23366,0.72469 -0.48493,0.95849 -0.25127,0.23381 -0.58367,0.35311 -0.99719,0.35791 -0.11738,-7.3e-4 -0.23309,-0.011 -0.34712,-0.0308 -0.11402,-0.0198 -0.22519,-0.0447 -0.3335,-0.0747 z m 1.81363,-6.65234 0.21697,-1.23047 1.3086,0 -0.21697,1.23047 z"
         style="font-size:8px;font-variant:normal;font-weight:300;font-stretch:normal;text-align:center;text-anchor:middle;font-family:Oswald;-inkscape-font-specification:Oswald Bold Oblique;fill:#ffffff"
         id="path4364" />
      <path
         d="m 512.82304,674.02234 0.38228,-2.16797 c 0.09,-0.52807 0.28798,-0.94555 0.59389,-1.25244 0.3059,-0.30688 0.73132,-0.46362 1.27627,-0.47022 0.54437,0.006 0.91509,0.16261 1.11217,0.46875 0.19707,0.30616 0.24723,0.72413 0.15048,1.25391 l -0.18597,1.05469 -1.81641,0 -0.19906,1.1289 c -0.0201,0.0914 -0.0236,0.18401 -0.0104,0.27784 0.0132,0.0938 0.0747,0.14445 0.18465,0.15185 0.11491,-0.006 0.1985,-0.055 0.25079,-0.14844 0.0523,-0.0934 0.0869,-0.19759 0.10393,-0.3125 l 0.0985,-0.55859 1.29297,0 -0.10125,0.57422 c -0.0913,0.44271 -0.30993,0.79167 -0.65579,1.04687 -0.34586,0.25521 -0.73389,0.38542 -1.16409,0.39063 -0.42661,-0.005 -0.76815,-0.13615 -1.02461,-0.39209 -0.25647,-0.25594 -0.35257,-0.60441 -0.28832,-1.04541 z m 1.63463,-1.80469 0.51172,0 0.12398,-0.70312 c 0.0189,-0.093 0.0174,-0.17944 -0.005,-0.25928 -0.022,-0.0798 -0.085,-0.12231 -0.18895,-0.12744 -0.10203,0.006 -0.17732,0.0498 -0.22588,0.13183 -0.0486,0.082 -0.0793,0.167 -0.0923,0.25489 z"
         style="font-size:8px;font-variant:normal;font-weight:300;font-stretch:normal;text-align:center;text-anchor:middle;font-family:Oswald;-inkscape-font-specification:Oswald Bold Oblique;fill:#ffffff"
         id="path4366" />
      <path
         d="m 517.27313,675.34656 0.15705,-0.89063 1.97679,-3.25781 -1.18359,0 0.16737,-0.94922 2.54297,0 -0.1536,0.8711 -1.99127,3.27343 1.41407,0 -0.16807,0.95313 z"
         style="font-size:8px;font-variant:normal;font-weight:300;font-stretch:normal;text-align:center;text-anchor:middle;font-family:Oswald;-inkscape-font-specification:Oswald Bold Oblique;fill:#ffffff"
         id="path4368" />
      <path
         d="m 520.58954,675.34656 0.89887,-5.09766 1.31641,0 -0.0634,0.35938 c 0.14777,-0.13932 0.3158,-0.25228 0.50409,-0.33887 0.18828,-0.0866 0.38136,-0.13118 0.57925,-0.13379 0.28295,0.0139 0.48304,0.13355 0.60029,0.35889 0.11725,0.22534 0.15318,0.4729 0.10782,0.74267 l -0.72461,4.10938 -1.31641,0 0.68397,-3.87891 c 0.0155,-0.062 0.0188,-0.13232 0.01,-0.21094 -0.009,-0.0786 -0.0652,-0.12157 -0.16867,-0.1289 -0.0783,0.006 -0.1552,0.0392 -0.23063,0.10058 -0.0754,0.0614 -0.13657,0.11638 -0.1834,0.16504 l -0.69706,3.95313 z"
         style="font-size:8px;font-variant:normal;font-weight:300;font-stretch:normal;text-align:center;text-anchor:middle;font-family:Oswald;-inkscape-font-specification:Oswald Bold Oblique;fill:#ffffff"
         id="path4370" />
      <path
         d="m 526.5661,675.34656 -0.0359,-0.52735 c -0.12876,0.24886 -0.2898,0.41911 -0.48312,0.51075 -0.19333,0.0916 -0.40718,0.13492 -0.64156,0.12988 -0.3831,-0.015 -0.63289,-0.14909 -0.74937,-0.40234 -0.11647,-0.25326 -0.14478,-0.53581 -0.0849,-0.84766 0.12213,-0.61141 0.39164,-1.0673 0.80854,-1.36768 0.4169,-0.30037 0.91375,-0.55021 1.49056,-0.74951 l 0.0758,-0.42969 c 0.0318,-0.17097 0.0341,-0.30265 0.007,-0.39502 -0.0274,-0.0924 -0.0958,-0.13907 -0.20527,-0.14013 -0.14767,0.007 -0.24871,0.0646 -0.30312,0.17383 -0.0544,0.10921 -0.0903,0.22965 -0.10766,0.36132 l -0.051,0.28907 -1.27734,0 c 0.1044,-0.58512 0.32954,-1.03402 0.67545,-1.34668 0.3459,-0.31266 0.80196,-0.47054 1.36818,-0.47364 0.39771,0.0106 0.71433,0.15154 0.94986,0.42286 0.23552,0.27132 0.32399,0.60954 0.26542,1.01464 l -0.42705,2.42188 c -0.0407,0.23299 -0.066,0.46037 -0.0759,0.68213 -0.01,0.22176 -0.008,0.44621 0.005,0.67334 z m -0.0624,-1.15235 0.2172,-1.2539 c -0.19948,0.13574 -0.37797,0.29785 -0.53547,0.48633 -0.1575,0.18847 -0.26136,0.40918 -0.31157,0.66211 -0.0182,0.091 -0.0152,0.17561 0.009,0.2539 0.0241,0.0783 0.0874,0.11996 0.18987,0.125 0.088,-0.004 0.16808,-0.0357 0.24025,-0.0942 0.0722,-0.0585 0.13576,-0.11824 0.19078,-0.1792 z"
         style="font-size:8px;font-variant:normal;font-weight:300;font-stretch:normal;text-align:center;text-anchor:middle;font-family:Oswald;-inkscape-font-specification:Oswald Bold Oblique;fill:#ffffff"
         id="path4372" />
      <path
         d="m 528.32391,675.34656 0.89888,-5.09766 1.3164,0 -0.0634,0.35938 c 0.14778,-0.13932 0.31581,-0.25228 0.50409,-0.33887 0.18828,-0.0866 0.38137,-0.13118 0.57926,-0.13379 0.28294,0.0139 0.48304,0.13355 0.60029,0.35889 0.11724,0.22534 0.15318,0.4729 0.10781,0.74267 l -0.72461,4.10938 -1.3164,0 0.68397,-3.87891 c 0.0155,-0.062 0.0188,-0.13232 0.01,-0.21094 -0.009,-0.0786 -0.0652,-0.12157 -0.16868,-0.1289 -0.0783,0.006 -0.15519,0.0392 -0.23063,0.10058 -0.0754,0.0614 -0.13657,0.11638 -0.18339,0.16504 l -0.69706,3.95313 z"
         style="font-size:8px;font-variant:normal;font-weight:300;font-stretch:normal;text-align:center;text-anchor:middle;font-family:Oswald;-inkscape-font-specification:Oswald Bold Oblique;fill:#ffffff"
         id="path4374" />
      <path
         d="m 531.60095,676.45593 0.16807,-0.95312 c 0.0522,0.0163 0.1065,0.0306 0.16283,0.043 0.0563,0.0124 0.11296,0.0189 0.1699,0.0195 0.11927,-0.005 0.20729,-0.0522 0.26405,-0.14063 0.0568,-0.0884 0.0932,-0.18603 0.10928,-0.29297 l 0.86099,-4.88281 1.30859,0 -0.88096,4.9961 c -0.072,0.40519 -0.23367,0.72469 -0.48493,0.95849 -0.25127,0.23381 -0.58367,0.35311 -0.9972,0.35791 -0.11738,-7.3e-4 -0.23308,-0.011 -0.34711,-0.0308 -0.11403,-0.0198 -0.22519,-0.0447 -0.33351,-0.0747 z m 1.81364,-6.65234 0.21697,-1.23047 1.30859,0 -0.21697,1.23047 z"
         style="font-size:8px;font-variant:normal;font-weight:300;font-stretch:normal;text-align:center;text-anchor:middle;font-family:Oswald;-inkscape-font-specification:Oswald Bold Oblique;fill:#ffffff"
         id="path4376" />
      <path
         d="m 534.65116,674.02234 0.38228,-2.16797 c 0.09,-0.52807 0.28799,-0.94555 0.59389,-1.25244 0.30591,-0.30688 0.73133,-0.46362 1.27628,-0.47022 0.54436,0.006 0.91509,0.16261 1.11217,0.46875 0.19707,0.30616 0.24723,0.72413 0.15048,1.25391 l -0.18598,1.05469 -1.8164,0 -0.19907,1.1289 c -0.0201,0.0914 -0.0236,0.18401 -0.0104,0.27784 0.0132,0.0938 0.0747,0.14445 0.18465,0.15185 0.1149,-0.006 0.1985,-0.055 0.25078,-0.14844 0.0523,-0.0934 0.0869,-0.19759 0.10393,-0.3125 l 0.0985,-0.55859 1.29297,0 -0.10125,0.57422 c -0.0913,0.44271 -0.30993,0.79167 -0.65579,1.04687 -0.34587,0.25521 -0.7339,0.38542 -1.1641,0.39063 -0.42661,-0.005 -0.76814,-0.13615 -1.02461,-0.39209 -0.25646,-0.25594 -0.35257,-0.60441 -0.28832,-1.04541 z m 1.63463,-1.80469 0.51172,0 0.12398,-0.70312 c 0.0189,-0.093 0.0174,-0.17944 -0.005,-0.25928 -0.022,-0.0798 -0.085,-0.12231 -0.18896,-0.12744 -0.10202,0.006 -0.17732,0.0498 -0.22588,0.13183 -0.0486,0.082 -0.0793,0.167 -0.0923,0.25489 z"
         style="font-size:8px;font-variant:normal;font-weight:300;font-stretch:normal;text-align:center;text-anchor:middle;font-family:Oswald;-inkscape-font-specification:Oswald Bold Oblique;fill:#ffffff"
         id="path4378" />
      <path
         d="m 469.81041,684.11609 1.07119,-0.35938 c 0.0151,0.14527 0.0517,0.30103 0.10998,0.46729 0.0582,0.16626 0.16699,0.25659 0.32624,0.271 0.096,-0.002 0.16633,-0.0295 0.21093,-0.083 0.0446,-0.0535 0.0733,-0.12223 0.0861,-0.20606 0.0244,-0.17773 -0.0244,-0.34863 -0.14641,-0.51269 -0.12203,-0.16406 -0.27372,-0.33301 -0.45506,-0.50684 l -0.18247,-0.18359 c -0.20247,-0.1971 -0.36989,-0.41715 -0.50225,-0.66016 -0.13236,-0.243 -0.17519,-0.52164 -0.12848,-0.83594 0.0973,-0.45873 0.32811,-0.80199 0.69233,-1.02978 0.36422,-0.22778 0.76351,-0.34155 1.19788,-0.34131 0.39397,0.0142 0.70295,0.16154 0.92696,0.44189 0.224,0.28036 0.35465,0.60833 0.39194,0.98389 l -1.00248,0.32422 c -0.0259,-0.15543 -0.0768,-0.32015 -0.15262,-0.49414 -0.0758,-0.17399 -0.20064,-0.26839 -0.37437,-0.2832 -0.0982,0.004 -0.17682,0.0382 -0.23594,0.10302 -0.0591,0.0649 -0.0957,0.1373 -0.10961,0.21729 -0.015,0.13119 0.0355,0.27311 0.15149,0.42578 0.11598,0.15267 0.25103,0.30241 0.40516,0.44922 l 0.2043,0.21484 c 0.19895,0.20321 0.36783,0.43156 0.50665,0.68506 0.13881,0.2535 0.1866,0.53166 0.14338,0.83447 -0.0867,0.42668 -0.29398,0.76864 -0.62181,1.02588 -0.32783,0.25725 -0.70023,0.38924 -1.11719,0.396 -0.41194,-0.007 -0.73692,-0.1342 -0.97492,-0.38037 -0.238,-0.24618 -0.37832,-0.5673 -0.42095,-0.96338 z"
         style="font-size:8px;font-variant:normal;font-weight:300;font-stretch:normal;text-align:center;text-anchor:middle;font-family:Oswald;-inkscape-font-specification:Oswald Bold Oblique;fill:#ffffff"
         id="path4380" />
      <path
         d="m 473.91766,685.34656 -0.15972,-5.09766 1.23438,0 -0.10292,3.44141 1.0326,-3.44141 1.23438,0 -1.90669,5.09766 z"
         style="font-size:8px;font-variant:normal;font-weight:300;font-stretch:normal;text-align:center;text-anchor:middle;font-family:Oswald;-inkscape-font-specification:Oswald Bold Oblique;fill:#ffffff"
         id="path4382" />
      <path
         d="m 478.72235,685.34656 -0.0359,-0.52735 c -0.12876,0.24886 -0.2898,0.41911 -0.48312,0.51075 -0.19333,0.0916 -0.40718,0.13492 -0.64156,0.12988 -0.3831,-0.015 -0.63289,-0.14909 -0.74937,-0.40234 -0.11647,-0.25326 -0.14478,-0.53581 -0.0849,-0.84766 0.12213,-0.61141 0.39164,-1.0673 0.80854,-1.36768 0.4169,-0.30037 0.91375,-0.55021 1.49056,-0.74951 l 0.0758,-0.42969 c 0.0319,-0.17097 0.0341,-0.30265 0.007,-0.39502 -0.0274,-0.0924 -0.0958,-0.13907 -0.20527,-0.14013 -0.14767,0.007 -0.24871,0.0646 -0.30312,0.17383 -0.0544,0.10921 -0.0903,0.22965 -0.10766,0.36132 l -0.051,0.28907 -1.27734,0 c 0.1044,-0.58512 0.32954,-1.03402 0.67545,-1.34668 0.3459,-0.31266 0.80196,-0.47054 1.36818,-0.47364 0.39771,0.0106 0.71433,0.15154 0.94986,0.42286 0.23552,0.27132 0.32399,0.60954 0.26542,1.01464 l -0.42705,2.42188 c -0.0407,0.23299 -0.066,0.46037 -0.0759,0.68213 -0.01,0.22176 -0.008,0.44621 0.005,0.67334 z m -0.0624,-1.15235 0.2172,-1.2539 c -0.19948,0.13574 -0.37797,0.29785 -0.53547,0.48633 -0.1575,0.18847 -0.26136,0.40918 -0.31157,0.66211 -0.0182,0.091 -0.0152,0.17561 0.009,0.2539 0.0241,0.0783 0.0874,0.11996 0.18987,0.125 0.088,-0.004 0.16808,-0.0357 0.24025,-0.0942 0.0722,-0.0585 0.13576,-0.11824 0.19078,-0.1792 z"
         style="font-size:8px;font-variant:normal;font-weight:300;font-stretch:normal;text-align:center;text-anchor:middle;font-family:Oswald;-inkscape-font-specification:Oswald Bold Oblique;fill:#ffffff"
         id="path4384" />
      <path
         d="m 480.49969,685.34656 1.23983,-7.03125 1.31641,0 -0.65298,3.70312 1.11671,-1.76953 1.41016,0 -1.63343,2.15235 0.73065,2.94531 -1.36328,0 -0.271,-2.27344 -0.22813,0.29688 -0.34853,1.97656 z"
         style="font-size:8px;font-variant:normal;font-weight:300;font-stretch:normal;text-align:center;text-anchor:middle;font-family:Oswald;-inkscape-font-specification:Oswald Bold Oblique;fill:#ffffff"
         id="path4386" />
      <path
         d="m 484.39423,685.34656 0.89887,-5.09766 1.3164,0 -0.89887,5.09766 z m 0.97739,-5.54297 0.21697,-1.23047 1.31641,0 -0.21697,1.23047 z"
         style="font-size:8px;font-variant:normal;font-weight:300;font-stretch:normal;text-align:center;text-anchor:middle;font-family:Oswald;-inkscape-font-specification:Oswald Bold Oblique;fill:#ffffff"
         id="path4388" />
      <path
         d="m 486.44891,685.34656 0.89888,-5.09766 1.3164,0 -0.0641,0.36328 c 0.14377,-0.13964 0.30649,-0.2539 0.48818,-0.34277 0.18168,-0.0889 0.36751,-0.13476 0.55748,-0.1377 0.17728,0.004 0.32583,0.061 0.44563,0.16993 0.11979,0.10889 0.20182,0.24365 0.24609,0.40429 0.15491,-0.16918 0.33324,-0.30639 0.53498,-0.41162 0.20174,-0.10522 0.41133,-0.15942 0.62877,-0.1626 0.28337,0.0142 0.48519,0.13518 0.60546,0.3628 0.12026,0.22762 0.15792,0.47648 0.11299,0.74658 l -0.72392,4.10547 -1.31641,0 0.67777,-3.84375 c 0.0167,-0.072 0.0226,-0.15063 0.0177,-0.23584 -0.005,-0.0852 -0.0526,-0.13159 -0.14294,-0.13916 -0.0704,0.007 -0.14577,0.0448 -0.22612,0.11377 -0.0803,0.0689 -0.14176,0.12736 -0.18422,0.17529 l -0.69293,3.92969 -1.31641,0 0.67915,-3.85156 c 0.0158,-0.07 0.0214,-0.14681 0.0167,-0.23047 -0.005,-0.0837 -0.0486,-0.12923 -0.13166,-0.13672 -0.0786,0.006 -0.15662,0.0427 -0.23421,0.10986 -0.0776,0.0671 -0.14045,0.12818 -0.18854,0.18311 l -0.68833,3.92578 z"
         style="font-size:8px;font-variant:normal;font-weight:300;font-stretch:normal;text-align:center;text-anchor:middle;font-family:Oswald;-inkscape-font-specification:Oswald Bold Oblique;fill:#ffffff"
         id="path4390" />
      <path
         d="m 495.34489,684.1864 0.48767,-2.76562 c -0.0287,-0.0549 -0.07,-0.11597 -0.12397,-0.18311 -0.0539,-0.0671 -0.11907,-0.10375 -0.19547,-0.10986 -0.0971,0.004 -0.16494,0.0414 -0.20363,0.11084 -0.0387,0.0694 -0.0635,0.14445 -0.0744,0.2251 l -0.46493,2.63671 c -0.0189,0.0871 -0.0223,0.16879 -0.01,0.24512 0.0123,0.0763 0.0669,0.11703 0.16402,0.12207 0.0804,-0.006 0.15912,-0.0403 0.23612,-0.104 0.077,-0.0637 0.13851,-0.1228 0.18457,-0.17725 z m -1.93862,0.1836 0.53106,-3.01172 c 0.063,-0.32454 0.21259,-0.6071 0.44878,-0.84766 0.23618,-0.24055 0.51155,-0.36686 0.82609,-0.37891 0.17271,0.003 0.32419,0.0477 0.45444,0.13379 0.13024,0.0861 0.23422,0.19516 0.31194,0.32715 l 0.40156,-2.27734 1.31641,0 -1.23982,7.03125 -1.31641,0 0.0675,-0.38281 c -0.13246,0.15397 -0.28298,0.27473 -0.45158,0.3623 -0.1686,0.0876 -0.3428,0.13216 -0.52261,0.13379 -0.29878,-0.01 -0.52288,-0.12085 -0.67233,-0.33252 -0.14944,-0.21167 -0.20112,-0.46411 -0.15503,-0.75732 z"
         style="font-size:8px;font-variant:normal;font-weight:300;font-stretch:normal;text-align:center;text-anchor:middle;font-family:Oswald;-inkscape-font-specification:Oswald Bold Oblique;fill:#ffffff"
         id="path4392" />
      <path
         d="m 499.2536,685.34656 -0.0359,-0.52735 c -0.12876,0.24886 -0.2898,0.41911 -0.48312,0.51075 -0.19333,0.0916 -0.40718,0.13492 -0.64156,0.12988 -0.3831,-0.015 -0.63289,-0.14909 -0.74937,-0.40234 -0.11647,-0.25326 -0.14478,-0.53581 -0.0849,-0.84766 0.12213,-0.61141 0.39164,-1.0673 0.80854,-1.36768 0.4169,-0.30037 0.91375,-0.55021 1.49056,-0.74951 l 0.0758,-0.42969 c 0.0319,-0.17097 0.0341,-0.30265 0.007,-0.39502 -0.0274,-0.0924 -0.0958,-0.13907 -0.20527,-0.14013 -0.14767,0.007 -0.24871,0.0646 -0.30312,0.17383 -0.0544,0.10921 -0.0903,0.22965 -0.10766,0.36132 l -0.051,0.28907 -1.27734,0 c 0.1044,-0.58512 0.32954,-1.03402 0.67545,-1.34668 0.3459,-0.31266 0.80196,-0.47054 1.36818,-0.47364 0.39771,0.0106 0.71433,0.15154 0.94986,0.42286 0.23552,0.27132 0.32399,0.60954 0.26542,1.01464 l -0.42705,2.42188 c -0.0407,0.23299 -0.066,0.46037 -0.0759,0.68213 -0.01,0.22176 -0.008,0.44621 0.005,0.67334 z m -0.0624,-1.15235 0.2172,-1.2539 c -0.19948,0.13574 -0.37797,0.29785 -0.53547,0.48633 -0.1575,0.18847 -0.26136,0.40918 -0.31157,0.66211 -0.0182,0.091 -0.0152,0.17561 0.009,0.2539 0.0241,0.0783 0.0874,0.11996 0.18987,0.125 0.088,-0.004 0.16808,-0.0357 0.24025,-0.0942 0.0722,-0.0585 0.13576,-0.11824 0.19078,-0.1792 z"
         style="font-size:8px;font-variant:normal;font-weight:300;font-stretch:normal;text-align:center;text-anchor:middle;font-family:Oswald;-inkscape-font-specification:Oswald Bold Oblique;fill:#ffffff"
         id="path4394" />
      <path
         d="m 501.01141,685.34656 0.89888,-5.09766 1.3164,0 -0.0634,0.35938 c 0.14778,-0.13932 0.31581,-0.25228 0.50409,-0.33887 0.18828,-0.0866 0.38137,-0.13118 0.57926,-0.13379 0.28294,0.0139 0.48304,0.13355 0.60029,0.35889 0.11724,0.22534 0.15318,0.4729 0.10781,0.74267 l -0.72461,4.10938 -1.3164,0 0.68397,-3.87891 c 0.0155,-0.062 0.0188,-0.13232 0.01,-0.21094 -0.009,-0.0786 -0.0651,-0.12157 -0.16868,-0.1289 -0.0783,0.006 -0.15519,0.0392 -0.23063,0.10058 -0.0754,0.0614 -0.13657,0.11638 -0.18339,0.16504 l -0.69706,3.95313 z"
         style="font-size:8px;font-variant:normal;font-weight:300;font-stretch:normal;text-align:center;text-anchor:middle;font-family:Oswald;-inkscape-font-specification:Oswald Bold Oblique;fill:#ffffff"
         id="path4396" />
      <path
         d="m 505.10429,684.02234 0.38228,-2.16797 c 0.0889,-0.52791 0.28605,-0.94474 0.59159,-1.25049 0.30554,-0.30574 0.73801,-0.46183 1.29741,-0.46826 0.55799,0.006 0.93876,0.16179 1.1423,0.4668 0.20354,0.30501 0.25691,0.72233 0.1601,1.25195 l -0.38227,2.16797 c -0.0917,0.44271 -0.31441,0.79167 -0.668,1.04687 -0.3536,0.25521 -0.75058,0.38542 -1.19095,0.39063 -0.43597,-0.005 -0.7832,-0.13615 -1.0417,-0.39209 -0.2585,-0.25594 -0.35542,-0.60441 -0.29076,-1.04541 z m 1.88396,0.0156 0.44496,-2.52343 c 0.0192,-0.093 0.0151,-0.17944 -0.0124,-0.25928 -0.0275,-0.0798 -0.10091,-0.12231 -0.2202,-0.12744 -0.11651,0.006 -0.19897,0.0498 -0.24737,0.13183 -0.0484,0.082 -0.0785,0.167 -0.0904,0.25489 l -0.44496,2.52343 c -0.0215,0.0931 -0.0257,0.1862 -0.0126,0.2793 0.0131,0.0931 0.0819,0.14323 0.20639,0.15039 0.13163,-0.007 0.22412,-0.0558 0.27747,-0.14746 0.0534,-0.0916 0.0864,-0.18571 0.0991,-0.28223 z"
         style="font-size:8px;font-variant:normal;font-weight:300;font-stretch:normal;text-align:center;text-anchor:middle;font-family:Oswald;-inkscape-font-specification:Oswald Bold Oblique;fill:#ffffff"
         id="path4398" />
      <path
         d="m 508.73016,685.34656 0.89888,-5.09766 1.3164,0 -0.0641,0.36328 c 0.14377,-0.13964 0.30649,-0.2539 0.48818,-0.34277 0.18168,-0.0889 0.36751,-0.13476 0.55748,-0.1377 0.17728,0.004 0.32583,0.061 0.44563,0.16993 0.11979,0.10889 0.20182,0.24365 0.24609,0.40429 0.15491,-0.16918 0.33324,-0.30639 0.53498,-0.41162 0.20174,-0.10522 0.41133,-0.15942 0.62877,-0.1626 0.28337,0.0142 0.48519,0.13518 0.60546,0.3628 0.12026,0.22762 0.15792,0.47648 0.11299,0.74658 l -0.72392,4.10547 -1.31641,0 0.67777,-3.84375 c 0.0167,-0.072 0.0226,-0.15063 0.0177,-0.23584 -0.005,-0.0852 -0.0526,-0.13159 -0.14294,-0.13916 -0.0704,0.007 -0.14577,0.0448 -0.22612,0.11377 -0.0804,0.0689 -0.14176,0.12736 -0.18422,0.17529 l -0.69293,3.92969 -1.31641,0 0.67915,-3.85156 c 0.0158,-0.07 0.0214,-0.14681 0.0167,-0.23047 -0.005,-0.0837 -0.0486,-0.12923 -0.13166,-0.13672 -0.0786,0.006 -0.15662,0.0427 -0.23421,0.10986 -0.0776,0.0671 -0.14045,0.12818 -0.18854,0.18311 l -0.68833,3.92578 z"
         style="font-size:8px;font-variant:normal;font-weight:300;font-stretch:normal;text-align:center;text-anchor:middle;font-family:Oswald;-inkscape-font-specification:Oswald Bold Oblique;fill:#ffffff"
         id="path4400" />
    </g>
  </g>
</svg>
