<?xml version="1.0" encoding="UTF-8" standalone="no"?>
<!-- Created with Inkscape (http://www.inkscape.org/) -->

<svg
   xmlns:dc="http://purl.org/dc/elements/1.1/"
   xmlns:cc="http://creativecommons.org/ns#"
   xmlns:rdf="http://www.w3.org/1999/02/22-rdf-syntax-ns#"
   xmlns:svg="http://www.w3.org/2000/svg"
   xmlns="http://www.w3.org/2000/svg"
   xmlns:sodipodi="http://sodipodi.sourceforge.net/DTD/sodipodi-0.dtd"
   xmlns:inkscape="http://www.inkscape.org/namespaces/inkscape"
   width="411.57144"
   height="261.57144"
   id="svg2"
   version="1.1"
   inkscape:version="0.48.4 r9939"
   sodipodi:docname="zrak.svg">
  <defs
     id="defs4" />
  <sodipodi:namedview
     id="base"
     pagecolor="#ffffff"
     bordercolor="#666666"
     borderopacity="1.0"
     inkscape:pageopacity="0.0"
     inkscape:pageshadow="2"
     inkscape:zoom="1.4"
     inkscape:cx="105.07142"
     inkscape:cy="97.928573"
     inkscape:document-units="px"
     inkscape:current-layer="layer1"
     showgrid="false"
     fit-margin-top="0"
     fit-margin-left="0"
     fit-margin-right="0"
     fit-margin-bottom="0"
     inkscape:window-width="1920"
     inkscape:window-height="1018"
     inkscape:window-x="-8"
     inkscape:window-y="-8"
     inkscape:window-maximized="1" />
  <metadata
     id="metadata7">
    <rdf:RDF>
      <cc:Work
         rdf:about="">
        <dc:format>image/svg+xml</dc:format>
        <dc:type
           rdf:resource="http://purl.org/dc/dcmitype/StillImage" />
        <dc:title />
      </cc:Work>
    </rdf:RDF>
  </metadata>
  <g
     inkscape:label="Layer 1"
     inkscape:groupmode="layer"
     id="layer1"
     transform="translate(-158.50001,-83.005043)">
    <path
       sodipodi:type="arc"
       style="fill:#008080"
       id="path2995"
       sodipodi:cx="85.714287"
       sodipodi:cy="72.362183"
       sodipodi:rx="13.571428"
       sodipodi:ry="13.571428"
       d="m 99.285715,72.362183 c 0,7.495293 -6.076135,13.571428 -13.571428,13.571428 -7.495293,0 -13.571428,-6.076135 -13.571428,-13.571428 0,-7.495293 6.076135,-13.571429 13.571428,-13.571429 7.495293,0 13.571428,6.076136 13.571428,13.571429 z"
       transform="translate(113.57143,54.285714)" />
    <path
       sodipodi:type="arc"
       style="fill:#008080"
       id="path2997"
       sodipodi:cx="236.07143"
       sodipodi:cy="119.1479"
       sodipodi:rx="42.5"
       sodipodi:ry="42.5"
       d="m 278.57143,119.1479 c 0,23.47211 -19.0279,42.5 -42.5,42.5 -23.47211,0 -42.5,-19.02789 -42.5,-42.5 0,-23.472098 19.02789,-42.499997 42.5,-42.499997 23.4721,0 42.5,19.027899 42.5,42.499997 z"
       transform="translate(113.57143,54.285714)" />
    <path
       sodipodi:type="arc"
       style="fill:#008080"
       id="path2999"
       sodipodi:cx="126.42857"
       sodipodi:cy="184.50504"
       sodipodi:rx="18.571428"
       sodipodi:ry="18.571428"
       d="m 145,184.50504 c 0,10.25671 -8.31471,18.57142 -18.57143,18.57142 -10.25671,0 -18.57142,-8.31471 -18.57142,-18.57142 0,-10.25672 8.31471,-18.57143 18.57142,-18.57143 10.25672,0 18.57143,8.31471 18.57143,18.57143 z"
       transform="translate(113.57143,54.285714)" />
    <path
       sodipodi:type="arc"
       style="fill:#008080"
       id="path3001"
       sodipodi:cx="376.78571"
       sodipodi:cy="88.433609"
       sodipodi:rx="18.214285"
       sodipodi:ry="18.214285"
       d="m 394.99999,88.433609 c 0,10.059472 -8.15481,18.214281 -18.21428,18.214281 -10.05948,0 -18.21429,-8.154809 -18.21429,-18.214281 0,-10.059472 8.15481,-18.214285 18.21429,-18.214285 10.05947,0 18.21428,8.154813 18.21428,18.214285 z"
       transform="translate(113.57143,54.285714)" />
    <path
       sodipodi:type="arc"
       style="fill:#008080"
       id="path3003"
       sodipodi:cx="408.92856"
       sodipodi:cy="229.86218"
       sodipodi:rx="20.357143"
       sodipodi:ry="20.357143"
       d="m 429.2857,229.86218 c 0,11.24294 -9.1142,20.35715 -20.35714,20.35715 -11.24294,0 -20.35715,-9.11421 -20.35715,-20.35715 0,-11.24294 9.11421,-20.35714 20.35715,-20.35714 11.24294,0 20.35714,9.1142 20.35714,20.35714 z"
       transform="translate(113.57143,54.285714)" />
    <path
       sodipodi:type="arc"
       style="fill:#008080"
       id="path3005"
       sodipodi:cx="290.71429"
       sodipodi:cy="195.93361"
       sodipodi:rx="13.571428"
       sodipodi:ry="13.571428"
       d="m 304.28572,195.93361 c 0,7.49529 -6.07613,13.57143 -13.57143,13.57143 -7.49529,0 -13.57142,-6.07614 -13.57142,-13.57143 0,-7.49529 6.07613,-13.57143 13.57142,-13.57143 7.4953,0 13.57143,6.07614 13.57143,13.57143 z"
       transform="translate(113.57143,54.285714)" />
    <path
       sodipodi:type="arc"
       style="fill:#008080"
       id="path3007"
       sodipodi:cx="196.07143"
       sodipodi:cy="239.86218"
       sodipodi:rx="23.928572"
       sodipodi:ry="23.928572"
       d="m 220,239.86218 c 0,13.21539 -10.71319,23.92857 -23.92857,23.92857 -13.21539,0 -23.92858,-10.71318 -23.92858,-23.92857 0,-13.21538 10.71319,-23.92857 23.92858,-23.92857 13.21538,0 23.92857,10.71319 23.92857,23.92857 z"
       transform="translate(113.57143,54.285714)" />
    <path
       sodipodi:type="arc"
       style="fill:#008080"
       id="path3009"
       sodipodi:cx="316.07144"
       sodipodi:cy="56.290752"
       sodipodi:rx="12.5"
       sodipodi:ry="12.5"
       d="m 328.57144,56.290752 c 0,6.90356 -5.59644,12.5 -12.5,12.5 -6.90356,0 -12.5,-5.59644 -12.5,-12.5 0,-6.903559 5.59644,-12.5 12.5,-12.5 6.90356,0 12.5,5.596441 12.5,12.5 z"
       transform="translate(113.57143,54.285714)" />
    <path
       sodipodi:type="arc"
       style="fill:#008080"
       id="path3011"
       sodipodi:cx="345"
       sodipodi:cy="148.07646"
       sodipodi:rx="8.5714283"
       sodipodi:ry="8.5714283"
       d="m 353.57143,148.07646 c 0,4.73387 -3.83756,8.57143 -8.57143,8.57143 -4.73387,0 -8.57143,-3.83756 -8.57143,-8.57143 0,-4.73387 3.83756,-8.57143 8.57143,-8.57143 4.73387,0 8.57143,3.83756 8.57143,8.57143 z"
       transform="translate(113.57143,54.285714)" />
    <path
       sodipodi:type="arc"
       style="fill:#008080"
       id="path3013"
       sodipodi:cx="341.78571"
       sodipodi:cy="247.71933"
       sodipodi:rx="6.0714288"
       sodipodi:ry="6.0714288"
       d="m 347.85713,247.71933 c 0,3.35316 -2.71827,6.07143 -6.07142,6.07143 -3.35316,0 -6.07143,-2.71827 -6.07143,-6.07143 0,-3.35316 2.71827,-6.07143 6.07143,-6.07143 3.35315,0 6.07142,2.71827 6.07142,6.07143 z"
       transform="translate(113.57143,54.285714)" />
    <path
       sodipodi:type="arc"
       style="fill:#008080"
       id="path3015"
       sodipodi:cx="82.14286"
       sodipodi:cy="249.50504"
       sodipodi:rx="10"
       sodipodi:ry="10"
       d="m 92.14286,249.50504 c 0,5.52284 -4.477152,10 -10,10 -5.522847,0 -10,-4.47716 -10,-10 0,-5.52285 4.477153,-10 10,-10 5.522848,0 10,4.47715 10,10 z"
       transform="translate(113.57143,54.285714)" />
    <path
       sodipodi:type="arc"
       style="fill:#008080"
       id="path3017"
       sodipodi:cx="153.92857"
       sodipodi:cy="87.005035"
       sodipodi:rx="5.3571429"
       sodipodi:ry="5.3571429"
       d="m 159.28572,87.005035 c 0,2.958669 -2.39848,5.357143 -5.35715,5.357143 -2.95866,0 -5.35714,-2.398474 -5.35714,-5.357143 0,-2.958668 2.39848,-5.357143 5.35714,-5.357143 2.95867,0 5.35715,2.398475 5.35715,5.357143 z"
       transform="translate(113.57143,54.285714)" />
    <path
       sodipodi:type="arc"
       style="fill:#008080"
       id="path3019"
       sodipodi:cx="156.07143"
       sodipodi:cy="137.00504"
       sodipodi:rx="3.2142856"
       sodipodi:ry="3.2142856"
       d="m 159.28571,137.00504 c 0,1.7752 -1.43908,3.21428 -3.21428,3.21428 -1.7752,0 -3.21429,-1.43908 -3.21429,-3.21428 0,-1.77521 1.43909,-3.21429 3.21429,-3.21429 1.7752,0 3.21428,1.43908 3.21428,3.21429 z"
       transform="translate(113.57143,54.285714)" />
    <path
       sodipodi:type="arc"
       style="fill:#008080"
       id="path3021"
       sodipodi:cx="111.07143"
       sodipodi:cy="114.1479"
       sodipodi:rx="3.2142856"
       sodipodi:ry="3.2142856"
       d="m 114.28571,114.1479 c 0,1.7752 -1.43908,3.21429 -3.21428,3.21429 -1.7752,0 -3.21429,-1.43909 -3.21429,-3.21429 0,-1.7752 1.43909,-3.21428 3.21429,-3.21428 1.7752,0 3.21428,1.43908 3.21428,3.21428 z"
       transform="translate(113.57143,54.285714)" />
    <path
       sodipodi:type="arc"
       style="fill:#008080"
       id="path3023"
       sodipodi:cx="407.5"
       sodipodi:cy="133.43361"
       sodipodi:rx="4.6428571"
       sodipodi:ry="4.6428571"
       d="m 412.14286,133.43361 c 0,2.56418 -2.07868,4.64286 -4.64286,4.64286 -2.56418,0 -4.64286,-2.07868 -4.64286,-4.64286 0,-2.56418 2.07868,-4.64286 4.64286,-4.64286 2.56418,0 4.64286,2.07868 4.64286,4.64286 z"
       transform="translate(113.57143,54.285714)" />
    <path
       sodipodi:type="arc"
       style="fill:#008080"
       id="path3025"
       sodipodi:cx="433.21429"
       sodipodi:cy="59.147896"
       sodipodi:rx="4.6428571"
       sodipodi:ry="4.6428571"
       d="m 437.85715,59.147896 c 0,2.564179 -2.07868,4.642857 -4.64286,4.642857 -2.56417,0 -4.64285,-2.078678 -4.64285,-4.642857 0,-2.564179 2.07868,-4.642857 4.64285,-4.642857 2.56418,0 4.64286,2.078678 4.64286,4.642857 z"
       transform="translate(113.57143,54.285714)" />
    <path
       sodipodi:type="arc"
       style="fill:#008080"
       id="path3027"
       sodipodi:cx="442.14285"
       sodipodi:cy="197.36218"
       sodipodi:rx="5"
       sodipodi:ry="5"
       d="m 447.14285,197.36218 c 0,2.76143 -2.23857,5 -5,5 -2.76142,0 -5,-2.23857 -5,-5 0,-2.76142 2.23858,-5 5,-5 2.76143,0 5,2.23858 5,5 z"
       transform="translate(113.57143,54.285714)" />
    <path
       sodipodi:type="arc"
       style="fill:#008080"
       id="path3029"
       sodipodi:cx="381.78571"
       sodipodi:cy="276.29074"
       sodipodi:rx="4.6428571"
       sodipodi:ry="4.6428571"
       d="m 386.42856,276.29074 c 0,2.56418 -2.07868,4.64286 -4.64285,4.64286 -2.56418,0 -4.64286,-2.07868 -4.64286,-4.64286 0,-2.56418 2.07868,-4.64286 4.64286,-4.64286 2.56417,0 4.64285,2.07868 4.64285,4.64286 z"
       transform="translate(113.57143,54.285714)" />
    <path
       sodipodi:type="arc"
       style="fill:#008080"
       id="path3031"
       sodipodi:cx="274.28571"
       sodipodi:cy="258.07648"
       sodipodi:rx="5"
       sodipodi:ry="5"
       d="m 279.28571,258.07648 c 0,2.76142 -2.23858,5 -5,5 -2.76143,0 -5,-2.23858 -5,-5 0,-2.76143 2.23857,-5 5,-5 2.76142,0 5,2.23857 5,5 z"
       transform="translate(113.57143,54.285714)" />
    <path
       sodipodi:type="arc"
       style="fill:#008080"
       id="path3033"
       sodipodi:cx="250.71428"
       sodipodi:cy="200.93361"
       sodipodi:rx="1.4285715"
       sodipodi:ry="1.4285715"
       d="m 252.14285,200.93361 c 0,0.78898 -0.63959,1.42857 -1.42857,1.42857 -0.78898,0 -1.42857,-0.63959 -1.42857,-1.42857 0,-0.78898 0.63959,-1.42857 1.42857,-1.42857 0.78898,0 1.42857,0.63959 1.42857,1.42857 z"
       transform="translate(113.57143,54.285714)" />
    <path
       sodipodi:type="arc"
       style="fill:#008080"
       id="path3035"
       sodipodi:cx="233.92857"
       sodipodi:cy="197.00504"
       sodipodi:rx="3.9285715"
       sodipodi:ry="3.9285715"
       d="m 237.85715,197.00504 c 0,2.16969 -1.75889,3.92857 -3.92858,3.92857 -2.16969,0 -3.92857,-1.75888 -3.92857,-3.92857 0,-2.16969 1.75888,-3.92858 3.92857,-3.92858 2.16969,0 3.92858,1.75889 3.92858,3.92858 z"
       transform="translate(113.57143,54.285714)" />
    <path
       sodipodi:type="arc"
       style="fill:#008080"
       id="path3037"
       sodipodi:cx="193.21428"
       sodipodi:cy="171.29076"
       sodipodi:rx="3.9285715"
       sodipodi:ry="3.9285715"
       d="m 197.14285,171.29076 c 0,2.16969 -1.75888,3.92857 -3.92857,3.92857 -2.16969,0 -3.92857,-1.75888 -3.92857,-3.92857 0,-2.16969 1.75888,-3.92858 3.92857,-3.92858 2.16969,0 3.92857,1.75889 3.92857,3.92858 z"
       transform="translate(113.57143,54.285714)" />
    <path
       sodipodi:type="arc"
       style="fill:#008080"
       id="path3039"
       sodipodi:cx="201.78572"
       sodipodi:cy="190.57646"
       sodipodi:rx="2.5"
       sodipodi:ry="2.5"
       d="m 204.28572,190.57646 c 0,1.38071 -1.11929,2.5 -2.5,2.5 -1.38071,0 -2.5,-1.11929 -2.5,-2.5 0,-1.38071 1.11929,-2.5 2.5,-2.5 1.38071,0 2.5,1.11929 2.5,2.5 z"
       transform="translate(113.57143,54.285714)" />
    <path
       sodipodi:type="arc"
       style="fill:#008080"
       id="path3041"
       sodipodi:cx="293.21429"
       sodipodi:cy="156.29076"
       sodipodi:rx="4.6428571"
       sodipodi:ry="4.6428571"
       d="m 297.85715,156.29076 c 0,2.56418 -2.07868,4.64285 -4.64286,4.64285 -2.56417,0 -4.64285,-2.07867 -4.64285,-4.64285 0,-2.56418 2.07868,-4.64286 4.64285,-4.64286 2.56418,0 4.64286,2.07868 4.64286,4.64286 z"
       transform="translate(113.57143,54.285714)" />
    <path
       sodipodi:type="arc"
       style="fill:#008080"
       id="path3055"
       sodipodi:cx="136.07143"
       sodipodi:cy="245.57646"
       sodipodi:rx="4.6428571"
       sodipodi:ry="4.6428571"
       d="m 140.71428,245.57646 c 0,2.56418 -2.07867,4.64286 -4.64285,4.64286 -2.56418,0 -4.64286,-2.07868 -4.64286,-4.64286 0,-2.56418 2.07868,-4.64286 4.64286,-4.64286 2.56418,0 4.64285,2.07868 4.64285,4.64286 z"
       transform="translate(113.57143,54.285714)" />
    <path
       sodipodi:type="arc"
       style="fill:#008080"
       id="path3059"
       sodipodi:cx="63.92857"
       sodipodi:cy="194.1479"
       sodipodi:rx="4.6428571"
       sodipodi:ry="4.6428571"
       d="m 68.571427,194.1479 c 0,2.56418 -2.078678,4.64286 -4.642857,4.64286 -2.564179,0 -4.642857,-2.07868 -4.642857,-4.64286 0,-2.56418 2.078678,-4.64285 4.642857,-4.64285 2.564179,0 4.642857,2.07867 4.642857,4.64285 z"
       transform="translate(113.57143,54.285714)" />
    <rect
       style="fill:none;stroke:#007e80;stroke-width:2.59510899;stroke-miterlimit:4;stroke-opacity:1;stroke-dasharray:none"
       id="rect3061"
       width="408.97632"
       height="258.97632"
       x="159.79756"
       y="84.302597" />
    <g
       style="font-size:144px;font-style:normal;font-variant:normal;font-weight:normal;font-stretch:normal;text-align:start;line-height:125%;letter-spacing:0px;word-spacing:0px;writing-mode:lr-tb;text-anchor:start;fill:#ffffff;fill-opacity:1;stroke:none;font-family:Oswald;-inkscape-font-specification:Oswald"
       id="text3109">
      <path
         d="m 238.00224,266.07648 40.5,-99 0,-13.5 -54,0 0,13.5 36,0 -40.5,99 0,13.5 58.5,0 0,-13.5 z"
         style="line-height:125%;font-family:Oswald;-inkscape-font-specification:Oswald;fill:#ffffff"
         id="path3114" />
      <path
         d="m 354.58037,187.32648 c -0.0836,-12.35732 -3.62556,-21.11122 -10.62598,-26.26172 -7.00054,-5.15027 -16.95854,-7.64636 -29.87402,-7.48828 l -22.5,0 0,126 18,0 0,-58.5 13.5,0 18.14062,58.5 17.85938,0 -20.25,-63 c 5.23968,-1.95257 9.17425,-5.44769 11.80371,-10.48535 2.62932,-5.03752 3.94475,-11.2924 3.94629,-18.76465 z m -18,0 c -0.0279,7.27303 -1.95855,12.48494 -5.79199,15.63574 -3.83354,3.15095 -9.40287,4.68904 -16.70801,4.61426 l -4.5,0 0,-40.5 4.5,0 c 7.30514,-0.0746 12.87447,1.46349 16.70801,4.61425 3.83344,3.15099 5.7641,8.3629 5.79199,15.63575 z"
         style="line-height:125%;font-family:Oswald;-inkscape-font-specification:Oswald;fill:#ffffff"
         id="path3116" />
      <path
         d="m 385.72881,248.07648 22.5,0 6.75,31.5 18,0 -27,-126 -18,0 -27,126 18,0 z m 20.25,-13.5 -18,0 9,-54 z"
         style="line-height:125%;font-family:Oswald;-inkscape-font-specification:Oswald;fill:#ffffff"
         id="path3118" />
      <path
         d="m 514.61162,279.57648 -31.57031,-76.5 27.07031,-49.5 -22.5,0 -27,54 0,-54 -18,0 0,126 18,0 0,-40.5 9,-18 22.5,58.5 z"
         style="line-height:125%;font-family:Oswald;-inkscape-font-specification:Oswald;fill:#ffffff"
         id="path3120" />
    </g>
  </g>
</svg>
